<svg xmlns="http://www.w3.org/2000/svg" height="48" width="48" viewBox="0 0 48 48"><title>48 decentralize</title><g class="nc-icon-wrapper"><path d="M33.8,27a1,1,0,0,1-.7-1.714,13,13,0,1,0-18.2,0,1,1,0,1,1-1.4,1.428,15,15,0,1,1,21,0A1,1,0,0,1,33.8,27Z" fill="#d9819c"></path><circle cx="24" cy="16" r="7" fill="#bb385f"></circle><path d="M24,41a1,1,0,0,1-1-1V32a1,1,0,0,1,2,0v8A1,1,0,0,1,24,41Z" fill="#cdcafc"></path><path d="M13,38a1,1,0,0,1-1-1V33a1,1,0,0,1,.553-.9l8-4a1,1,0,0,1,.894,1.79L14,33.618V37A1,1,0,0,1,13,38Z" fill="#cdcafc"></path><path d="M35,38a1,1,0,0,1-1-1V33.618L26.553,29.9a1,1,0,0,1,.894-1.79l8,4A1,1,0,0,1,36,33v4A1,1,0,0,1,35,38Z" fill="#cdcafc"></path><circle cx="24" cy="29" r="4" fill="#857cf8"></circle><circle cx="24" cy="43" r="4" fill="#857cf8"></circle><circle cx="13" cy="40" r="4" fill="#857cf8"></circle><circle cx="35" cy="40" r="4" fill="#857cf8"></circle></g></svg> 