<svg xmlns="http://www.w3.org/2000/svg" height="64" width="64" viewBox="0 0 64 64"><title>64 ai</title><g stroke-linecap="round" fill="#212121" stroke-linejoin="round" class="nc-icon-wrapper"><line x1="22" y1="9" x2="22" y2="3" fill="none" stroke="#212121" stroke-width="4" data-color="color-2"></line><line x1="42" y1="9" x2="42" y2="3" fill="none" stroke="#212121" stroke-width="4" data-color="color-2"></line><line x1="32" y1="9" x2="32" y2="3" fill="none" stroke="#212121" stroke-width="4" data-color="color-2"></line><line x1="9" y1="42" x2="3" y2="42" fill="none" stroke="#212121" stroke-width="4" data-color="color-2"></line><line x1="9" y1="22" x2="3" y2="22" fill="none" stroke="#212121" stroke-width="4" data-color="color-2"></line><line x1="9" y1="32" x2="3" y2="32" fill="none" stroke="#212121" stroke-width="4" data-color="color-2"></line><line x1="61" y1="42" x2="55" y2="42" fill="none" stroke="#212121" stroke-width="4" data-color="color-2"></line><line x1="61" y1="22" x2="55" y2="22" fill="none" stroke="#212121" stroke-width="4" data-color="color-2"></line><line x1="61" y1="32" x2="55" y2="32" fill="none" stroke="#212121" stroke-width="4" data-color="color-2"></line><line x1="22" y1="61" x2="22" y2="55" fill="none" stroke="#212121" stroke-width="4" data-color="color-2"></line><line x1="42" y1="61" x2="42" y2="55" fill="none" stroke="#212121" stroke-width="4" data-color="color-2"></line><line x1="32" y1="61" x2="32" y2="55" fill="none" stroke="#212121" stroke-width="4" data-color="color-2"></line><rect x="9" y="9" width="46" height="46" rx="5" fill="none" stroke="#212121" stroke-width="4"></rect><rect x="16" y="16" width="32" height="32" fill="none" stroke="#212121" stroke-width="4"></rect><path d="M33.023,40l-1.711-4.758h-6.55L23.086,40H20.133l6.41-17.2H29.59L36,40Zm-2.449-7.172-1.605-4.664q-.175-.468-.487-1.476t-.427-1.477a26.284,26.284,0,0,1-.926,3.152l-1.547,4.465Z" fill="#212121" data-color="color-2" data-stroke="none" stroke="none"></path><path d="M39.2,40V22.867H42V40Z" fill="#212121" data-color="color-2" data-stroke="none" stroke="none"></path></g></svg> 