<svg xmlns="http://www.w3.org/2000/svg" height="48" width="48" viewBox="0 0 48 48"><title>48 artificial brain</title><g class="nc-icon-wrapper"><path d="M19,1a6.786,6.786,0,0,0-6.282,4A10.879,10.879,0,0,0,2,16a11.077,11.077,0,0,0,2.331,6.852A6.838,6.838,0,0,0,2,28a6.63,6.63,0,0,0,2.412,5.178A10.183,10.183,0,0,0,4,36,10.883,10.883,0,0,0,15,47,10.883,10.883,0,0,0,26,36V8A6.926,6.926,0,0,0,19,1Zm5,35a8.9,8.9,0,0,1-9,9,8.9,8.9,0,0,1-9-9,8.031,8.031,0,0,1,.528-2.829,1,1,0,0,0-.4-1.219A4.606,4.606,0,0,1,4,28a4.853,4.853,0,0,1,1.735-3.711,11.3,11.3,0,0,0,6.337,2.664,6.754,6.754,0,0,0,4.612,5.6,1,1,0,0,0,.632-1.9A4.819,4.819,0,0,1,14,26a4.751,4.751,0,0,1,1.64-3.632,1,1,0,1,0-1.28-1.537,6.7,6.7,0,0,0-2.27,4.122,9.287,9.287,0,0,1-5.583-2.66A9.046,9.046,0,0,1,4,16a8.9,8.9,0,0,1,9-9h.4a1,1,0,0,0,.949-.684A4.819,4.819,0,0,1,19,3a4.89,4.89,0,0,1,5,5Z" fill="#cc9875"></path><path d="M24,36a8.9,8.9,0,0,1-9,9,8.9,8.9,0,0,1-9-9,8.031,8.031,0,0,1,.528-2.829,1,1,0,0,0-.4-1.219A4.606,4.606,0,0,1,4,28a4.853,4.853,0,0,1,1.735-3.711,11.3,11.3,0,0,0,6.337,2.664,6.754,6.754,0,0,0,4.612,5.6,1,1,0,0,0,.632-1.9A4.819,4.819,0,0,1,14,26a4.751,4.751,0,0,1,1.64-3.632,1,1,0,1,0-1.28-1.537,6.7,6.7,0,0,0-2.27,4.122,9.287,9.287,0,0,1-5.583-2.66A9.046,9.046,0,0,1,4,16a8.9,8.9,0,0,1,9-9h.4a1,1,0,0,0,.949-.684A4.819,4.819,0,0,1,19,3a4.89,4.89,0,0,1,5,5Z" fill="#eebc99"></path><path d="M39.216,38.114a2.9,2.9,0,0,0-2.12.2.91.91,0,0,0-.1-.145l-3.879-3.879A1,1,0,0,0,32.414,34H21a1,1,0,0,0-1,1h0a1,1,0,0,0,1,1H32l3.586,3.586a.91.91,0,0,0,.145.1,2.9,2.9,0,0,0-.2,2.12,3.037,3.037,0,0,0,2.408,2.161,3,3,0,0,0,3.441-3.441A3.037,3.037,0,0,0,39.216,38.114Z" fill="#5a7a84"></path><path d="M42,17.056a2.99,2.99,0,0,0-3.416,1.979A.915.915,0,0,0,38.414,19H21a1,1,0,0,0-1,1h0a1,1,0,0,0,1,1H38.414a.915.915,0,0,0,.173-.035A2.995,2.995,0,1,0,42,17.056Z" fill="#5a7a84"></path><path d="M37.414,25a2.989,2.989,0,0,0-2.827,2.035A.915.915,0,0,0,34.414,27H26v2h8.414a.915.915,0,0,0,.173-.035A2.994,2.994,0,1,0,37.414,25Z" fill="#223e49"></path><path d="M38.414,4a2.98,2.98,0,0,0-2.683,4.318.91.91,0,0,0-.145.1L32,12H26v2h6.414a1,1,0,0,0,.707-.293L37,9.828a.91.91,0,0,0,.1-.145A3,3,0,1,0,38.414,4Z" fill="#223e49"></path></g></svg> 